<svg width="49" height="48" viewBox="0 0 49 48" fill="none" xmlns="http://www.w3.org/2000/svg">
<g filter="url(#filter0_b_1202_349)">
<rect width="49" height="48" rx="24" fill="#1C1C1C" fill-opacity="0.5"/>
<rect width="49" height="48" rx="24" fill="#322EFF"/>
<path d="M24.5001 20.25C23.7584 20.25 23.0334 20.4699 22.4167 20.882C21.8 21.294 21.3193 21.8797 21.0355 22.5649C20.7517 23.2502 20.6774 24.0042 20.8221 24.7316C20.9668 25.459 21.324 26.1272 21.8484 26.6517C22.3729 27.1761 23.041 27.5333 23.7685 27.6779C24.4959 27.8226 25.2499 27.7484 25.9351 27.4645C26.6204 27.1807 27.206 26.7001 27.6181 26.0834C28.0301 25.4667 28.2501 24.7417 28.2501 24C28.2471 23.0064 27.8511 22.0542 27.1484 21.3516C26.4458 20.649 25.4937 20.253 24.5001 20.25ZM32.5963 24C32.5944 24.3504 32.5687 24.7003 32.5194 25.0472L34.8018 26.8341C34.9012 26.9161 34.9682 27.0309 34.9908 27.1578C35.0133 27.2847 34.9901 27.4155 34.9251 27.5269L32.766 31.2544C32.7004 31.3647 32.5979 31.4484 32.4767 31.4907C32.3555 31.5329 32.2232 31.5311 32.1032 31.4855L29.4196 30.4073C28.8608 30.8377 28.2493 31.1948 27.5999 31.47L27.1987 34.3191C27.1762 34.4467 27.1101 34.5625 27.0117 34.6468C26.9133 34.7311 26.7887 34.7786 26.6591 34.7812H22.341C22.2138 34.7788 22.0912 34.7333 21.9932 34.6521C21.8952 34.571 21.8276 34.459 21.8015 34.3345L21.4002 31.4855C20.7491 31.2134 20.1371 30.8557 19.5805 30.4219L16.8969 31.5C16.777 31.5457 16.6448 31.5476 16.5235 31.5054C16.4023 31.4632 16.2998 31.3796 16.2341 31.2694L14.0751 27.5423C14.0101 27.431 13.9868 27.3002 14.0094 27.1733C14.032 27.0464 14.0989 26.9316 14.1983 26.8495L16.4807 25.0627C16.432 24.7105 16.4063 24.3555 16.4038 24C16.4058 23.6496 16.4315 23.2997 16.4807 22.9528L14.1983 21.1659C14.0989 21.0839 14.032 20.9691 14.0094 20.8422C13.9868 20.7153 14.0101 20.5845 14.0751 20.4731L16.2341 16.7456C16.2998 16.6353 16.4022 16.5516 16.5234 16.5093C16.6447 16.4671 16.7769 16.4689 16.8969 16.5145L19.5805 17.5927C20.1393 17.1623 20.7509 16.8052 21.4002 16.53L21.8015 13.6809C21.8239 13.5533 21.89 13.4375 21.9884 13.3532C22.0868 13.2689 22.2115 13.2214 22.341 13.2188H26.6591C26.7863 13.2212 26.9089 13.2667 27.0069 13.3479C27.1049 13.429 27.1725 13.541 27.1987 13.6655L27.5999 16.5145C28.2519 16.7864 28.8646 17.1441 29.4219 17.5781L32.1032 16.5C32.2232 16.4543 32.3554 16.4524 32.4766 16.4946C32.5978 16.5368 32.7003 16.6204 32.766 16.7306L34.9251 20.4581C34.9901 20.5695 35.0133 20.7003 34.9908 20.8272C34.9682 20.9541 34.9012 21.0689 34.8018 21.1509L32.5194 22.9378C32.5681 23.2898 32.5938 23.6446 32.5963 24Z" fill="#FCFCFC"/>
</g>
<defs>
<filter id="filter0_b_1202_349" x="-50" y="-50" width="149" height="148" filterUnits="userSpaceOnUse" color-interpolation-filters="sRGB">
<feFlood flood-opacity="0" result="BackgroundImageFix"/>
<feGaussianBlur in="BackgroundImageFix" stdDeviation="25"/>
<feComposite in2="SourceAlpha" operator="in" result="effect1_backgroundBlur_1202_349"/>
<feBlend mode="normal" in="SourceGraphic" in2="effect1_backgroundBlur_1202_349" result="shape"/>
</filter>
</defs>
</svg>
