<svg width="49" height="48" viewBox="0 0 49 48" fill="none" xmlns="http://www.w3.org/2000/svg">
<g filter="url(#filter0_b_1202_345)">
<rect width="49" height="48" rx="24" fill="#1C1C1C" fill-opacity="0.5"/>
<rect width="49" height="48" rx="24" fill="#322EFF"/>
<g clip-path="url(#clip0_1202_345)">
<path d="M26.4943 13.704C26.745 13.846 26.9 14.1119 26.9 14.4001V33.6001C26.9 33.8883 26.745 34.1542 26.4942 34.2963C26.2433 34.4383 25.9356 34.4343 25.6884 34.286L17.8784 29.6001H14.9C13.5753 29.6001 12.5 28.5265 12.5 27.2001V20.7959C12.5 19.4689 13.576 18.397 14.9 18.397H17.8785L25.6886 13.714C25.9358 13.5658 26.2435 13.562 26.4943 13.704Z" fill="#FCFCFC"/>
<path d="M34.6656 18.6309L34.0996 18.0654L32.9688 19.1972L33.531 19.7592L33.5345 19.7629C33.5403 19.7689 33.5513 19.7809 33.567 19.7987C33.5982 19.8345 33.6479 19.8939 33.7102 19.9768C33.8347 20.1427 34.0084 20.4018 34.1846 20.754C34.5356 21.4556 34.9001 22.533 34.9001 23.9937C34.9001 25.4543 34.5356 26.5317 34.1846 27.2334C34.0084 27.5855 33.8347 27.8446 33.7102 28.0105C33.6479 28.0934 33.5982 28.1527 33.567 28.1886C33.5513 28.2065 33.5403 28.2185 33.5345 28.2244L33.5311 28.2281L32.9688 28.7902L34.0996 29.9218L34.6656 29.3564L34.1001 28.7905C34.6655 29.3564 34.6652 29.3567 34.6656 29.3564L34.6668 29.3553L34.6681 29.3538L34.6712 29.3508L34.6792 29.3426L34.7016 29.3191C34.7193 29.3002 34.7427 29.2746 34.7707 29.2426C34.8268 29.1785 34.9022 29.0879 34.9899 28.971C35.1654 28.737 35.3916 28.3966 35.6155 27.9493C36.0644 27.0519 36.5001 25.7309 36.5001 23.9937C36.5001 22.2564 36.0644 20.9354 35.6155 20.0381C35.3916 19.5907 35.1654 19.2502 34.9899 19.0164C34.9022 18.8994 34.8268 18.8089 34.7707 18.7447C34.7427 18.7127 34.7193 18.6871 34.7016 18.6682L34.6792 18.6447L34.6712 18.6366L34.6681 18.6334L34.6668 18.6321C34.6665 18.6318 34.6655 18.6309 34.1001 19.1968L34.6656 18.6309Z" fill="#FCFCFC"/>
</g>
</g>
<defs>
<filter id="filter0_b_1202_345" x="-50" y="-50" width="149" height="148" filterUnits="userSpaceOnUse" color-interpolation-filters="sRGB">
<feFlood flood-opacity="0" result="BackgroundImageFix"/>
<feGaussianBlur in="BackgroundImageFix" stdDeviation="25"/>
<feComposite in2="SourceAlpha" operator="in" result="effect1_backgroundBlur_1202_345"/>
<feBlend mode="normal" in="SourceGraphic" in2="effect1_backgroundBlur_1202_345" result="shape"/>
</filter>
<clipPath id="clip0_1202_345">
<rect width="24" height="24" fill="white" transform="translate(12.5 12)"/>
</clipPath>
</defs>
</svg>
