<svg width="318" height="76" viewBox="0 0 318 76" fill="none" xmlns="http://www.w3.org/2000/svg">
<g filter="url(#filter0_d_1202_339)">
<path d="M34.0078 37.8359C34.1484 37.0547 34.0859 36.3906 33.8203 35.8438C33.5703 35.2969 33.1953 34.8359 32.6953 34.4609C32.1953 34.0859 31.625 33.7656 30.9844 33.5C30.3438 33.2344 29.7266 32.9844 29.1328 32.75C27.9141 32.2812 26.7109 31.7422 25.5234 31.1328C24.3516 30.5234 23.2891 29.8047 22.3359 28.9766C21.3828 28.1484 20.6328 27.1797 20.0859 26.0703C19.5547 24.9453 19.3359 23.6328 19.4297 22.1328C19.5391 20.4297 20.0156 18.9609 20.8594 17.7266C21.7188 16.4766 22.8203 15.4531 24.1641 14.6562C25.5078 13.8594 26.9531 13.2812 28.5 12.9219C30.0625 12.5469 31.6016 12.375 33.1172 12.4062C35.2422 12.4375 37.1406 12.875 38.8125 13.7188C40.5 14.5625 41.8203 15.7734 42.7734 17.3516C43.7422 18.9141 44.2031 20.7891 44.1562 22.9766H36.7734C36.8203 22.0234 36.6953 21.1953 36.3984 20.4922C36.1172 19.7891 35.6562 19.2422 35.0156 18.8516C34.375 18.4609 33.5625 18.2578 32.5781 18.2422C31.7344 18.2109 30.8984 18.3359 30.0703 18.6172C29.2422 18.8984 28.5312 19.3359 27.9375 19.9297C27.3438 20.5078 26.9609 21.2578 26.7891 22.1797C26.6797 22.8672 26.7812 23.4688 27.0938 23.9844C27.4219 24.4844 27.8672 24.9141 28.4297 25.2734C29.0078 25.6172 29.6094 25.9141 30.2344 26.1641C30.875 26.4141 31.4453 26.625 31.9453 26.7969C33.2109 27.2812 34.4297 27.8438 35.6016 28.4844C36.7891 29.1094 37.8359 29.8594 38.7422 30.7344C39.6641 31.5938 40.3672 32.6016 40.8516 33.7578C41.3359 34.9141 41.5312 36.25 41.4375 37.7656C41.3125 39.5156 40.8438 41.0078 40.0312 42.2422C39.2188 43.4766 38.1797 44.4844 36.9141 45.2656C35.6484 46.0469 34.25 46.6172 32.7188 46.9766C31.2031 47.3359 29.6641 47.5078 28.1016 47.4922C26.3828 47.4609 24.7656 47.1953 23.25 46.6953C21.75 46.1953 20.4375 45.4609 19.3125 44.4922C18.1875 43.5234 17.3125 42.3438 16.6875 40.9531C16.0781 39.5469 15.7969 37.9297 15.8438 36.1016L23.2969 36.125C23.2344 37.0312 23.2969 37.8359 23.4844 38.5391C23.6875 39.2266 24 39.8047 24.4219 40.2734C24.8594 40.7266 25.4141 41.0703 26.0859 41.3047C26.7734 41.5391 27.5859 41.6562 28.5234 41.6562C29.3516 41.6719 30.1562 41.5469 30.9375 41.2812C31.7344 41.0156 32.4062 40.6016 32.9531 40.0391C33.5156 39.4766 33.8672 38.7422 34.0078 37.8359ZM54.9722 26.9141L49.7925 56.75H42.6441L48.7378 21.6406H55.3472L54.9722 26.9141ZM69.0347 33.8984L68.9644 34.3906C68.7925 35.9219 68.4409 37.4688 67.9097 39.0312C67.3784 40.5781 66.6597 42 65.7534 43.2969C64.8628 44.5938 63.7534 45.6328 62.4253 46.4141C61.0972 47.1797 59.5347 47.5391 57.7378 47.4922C56.1597 47.4453 54.855 47.0234 53.8237 46.2266C52.8081 45.4141 52.0112 44.3828 51.4331 43.1328C50.855 41.8672 50.4566 40.5156 50.2378 39.0781C50.0191 37.6406 49.9253 36.2812 49.9566 35L50.0737 34.0156C50.3237 32.6094 50.7222 31.1484 51.2691 29.6328C51.8316 28.1172 52.5659 26.7109 53.4722 25.4141C54.3784 24.1172 55.4644 23.0703 56.73 22.2734C57.9956 21.4766 59.4644 21.1016 61.1362 21.1484C62.8706 21.1953 64.2925 21.6094 65.4019 22.3906C66.5112 23.1562 67.3472 24.1641 67.9097 25.4141C68.4878 26.6641 68.855 28.0312 69.0112 29.5156C69.1675 31 69.1753 32.4609 69.0347 33.8984ZM61.8394 34.3672L61.8862 33.8516C61.9331 33.2422 61.9644 32.5469 61.98 31.7656C62.0112 30.9688 61.9487 30.2031 61.7925 29.4688C61.6362 28.7344 61.3316 28.1172 60.8784 27.6172C60.4409 27.1172 59.7769 26.8516 58.8862 26.8203C57.9331 26.7891 57.1206 26.9453 56.4487 27.2891C55.7769 27.6328 55.2144 28.1094 54.7612 28.7188C54.3081 29.3281 53.9487 30.0156 53.6831 30.7812C53.4331 31.5469 53.2456 32.3438 53.1206 33.1719L52.7925 35.75C52.6987 36.6875 52.7144 37.6172 52.8394 38.5391C52.98 39.4453 53.3159 40.2109 53.8472 40.8359C54.3941 41.4453 55.23 41.7656 56.355 41.7969C57.3237 41.8281 58.1362 41.6094 58.7925 41.1406C59.4644 40.6562 60.0034 40.0312 60.4097 39.2656C60.8316 38.5 61.1519 37.6875 61.3706 36.8281C61.5894 35.9531 61.7456 35.1328 61.8394 34.3672ZM85.1241 40.9531L86.835 29.9844C86.8975 29.3594 86.8741 28.7734 86.7647 28.2266C86.6709 27.6797 86.4366 27.2344 86.0616 26.8906C85.6866 26.5312 85.1319 26.3438 84.3975 26.3281C83.7569 26.3125 83.1866 26.4297 82.6866 26.6797C82.2022 26.9141 81.8037 27.2578 81.4912 27.7109C81.1944 28.1641 80.9834 28.6953 80.8584 29.3047L73.6866 29.3516C73.7647 27.9141 74.1553 26.6719 74.8584 25.625C75.5772 24.5781 76.4912 23.7266 77.6006 23.0703C78.71 22.3984 79.9209 21.9062 81.2334 21.5938C82.5459 21.2812 83.835 21.1406 85.1006 21.1719C86.8662 21.2031 88.46 21.5781 89.8819 22.2969C91.3037 23 92.3897 24.0156 93.1397 25.3438C93.9053 26.6562 94.2022 28.25 94.0303 30.125L92.3194 40.7656C92.1787 41.6875 92.0537 42.6641 91.9444 43.6953C91.8506 44.7109 91.9991 45.6641 92.3897 46.5547L92.3662 47L85.3584 47.0234C85.0459 46.0547 84.8897 45.0547 84.8897 44.0234C84.8897 42.9766 84.9678 41.9531 85.1241 40.9531ZM87.6319 31.5312L86.9756 35.5625L83.7881 35.5391C83.1631 35.5547 82.5459 35.6484 81.9366 35.8203C81.3272 35.9766 80.7803 36.2266 80.2959 36.5703C79.8116 36.8984 79.4053 37.3203 79.0772 37.8359C78.7491 38.3359 78.5459 38.9297 78.4678 39.6172C78.3897 40.1172 78.4287 40.5625 78.585 40.9531C78.7569 41.3281 79.0147 41.625 79.3584 41.8438C79.7022 42.0625 80.1241 42.1797 80.6241 42.1953C81.3584 42.2109 82.0694 42.0781 82.7569 41.7969C83.46 41.5 84.0694 41.0859 84.585 40.5547C85.1006 40.0078 85.4522 39.3828 85.6397 38.6797L87.0225 41.7734C86.6319 42.6328 86.1631 43.4141 85.6162 44.1172C85.0694 44.8203 84.4522 45.4297 83.7647 45.9453C83.0772 46.4453 82.3116 46.8359 81.4678 47.1172C80.6397 47.3984 79.7334 47.5312 78.7491 47.5156C77.3428 47.4844 76.0537 47.1562 74.8819 46.5312C73.7256 45.8906 72.8037 45.0156 72.1162 43.9062C71.4287 42.7969 71.1162 41.5156 71.1787 40.0625C71.2412 38.375 71.6553 36.9844 72.4209 35.8906C73.1866 34.7812 74.1787 33.9062 75.3975 33.2656C76.6162 32.625 77.9444 32.1719 79.3819 31.9062C80.8194 31.6406 82.2491 31.5078 83.6709 31.5078L87.6319 31.5312ZM107.588 41.7969C108.37 41.8125 109.057 41.6719 109.651 41.375C110.245 41.0625 110.721 40.625 111.081 40.0625C111.456 39.5 111.706 38.8516 111.831 38.1172L118.557 38.0938C118.432 40.0469 117.831 41.7344 116.753 43.1562C115.69 44.5625 114.331 45.6484 112.674 46.4141C111.034 47.1641 109.268 47.5156 107.378 47.4688C105.549 47.4375 103.979 47.0781 102.667 46.3906C101.354 45.6875 100.284 44.75 99.4556 43.5781C98.6431 42.3906 98.0728 41.0312 97.7447 39.5C97.4166 37.9688 97.3306 36.3672 97.4869 34.6953L97.5806 34.0625C97.7681 32.2812 98.19 30.6094 98.8463 29.0469C99.5025 27.4688 100.378 26.0859 101.471 24.8984C102.581 23.6953 103.893 22.7656 105.409 22.1094C106.924 21.4375 108.628 21.125 110.518 21.1719C112.518 21.2031 114.221 21.6562 115.628 22.5312C117.034 23.3906 118.104 24.5703 118.838 26.0703C119.573 27.5547 119.924 29.2656 119.893 31.2031L113.167 31.1797C113.182 30.4609 113.096 29.7734 112.909 29.1172C112.737 28.4609 112.409 27.9297 111.924 27.5234C111.456 27.1016 110.799 26.875 109.956 26.8438C108.987 26.8125 108.182 27.0234 107.542 27.4766C106.901 27.9141 106.385 28.5078 105.995 29.2578C105.604 29.9922 105.307 30.7891 105.104 31.6484C104.917 32.4922 104.784 33.2969 104.706 34.0625L104.659 34.6719C104.596 35.3125 104.542 36.0391 104.495 36.8516C104.463 37.6484 104.518 38.4219 104.659 39.1719C104.815 39.9219 105.112 40.5391 105.549 41.0234C106.003 41.5078 106.682 41.7656 107.588 41.7969ZM133.264 47.4688C131.514 47.4375 129.928 47.1094 128.506 46.4844C127.1 45.8594 125.912 45 124.943 43.9062C123.975 42.7969 123.264 41.5078 122.811 40.0391C122.357 38.5703 122.193 36.9688 122.318 35.2344L122.412 34.3203C122.6 32.5078 123.029 30.8047 123.701 29.2109C124.389 27.6172 125.303 26.2109 126.443 24.9922C127.584 23.7578 128.928 22.8047 130.475 22.1328C132.037 21.4453 133.779 21.125 135.701 21.1719C137.467 21.2031 138.982 21.5625 140.248 22.25C141.529 22.9219 142.561 23.8359 143.342 24.9922C144.139 26.1484 144.686 27.4609 144.982 28.9297C145.279 30.3984 145.342 31.9531 145.17 33.5938L144.748 36.5938H124.897L125.647 31.8828L138.326 31.9062L138.467 31.2734C138.576 30.4766 138.537 29.75 138.35 29.0938C138.162 28.4219 137.811 27.8828 137.295 27.4766C136.779 27.0703 136.084 26.8516 135.209 26.8203C134.193 26.8047 133.342 27.0234 132.654 27.4766C131.967 27.9297 131.412 28.5391 130.99 29.3047C130.568 30.0547 130.24 30.875 130.006 31.7656C129.787 32.6406 129.623 33.4922 129.514 34.3203L129.42 35.2109C129.357 36.0234 129.381 36.8125 129.49 37.5781C129.615 38.3438 129.85 39.0391 130.193 39.6641C130.553 40.2734 131.037 40.7734 131.647 41.1641C132.272 41.5391 133.045 41.7422 133.967 41.7734C135.17 41.8047 136.287 41.5703 137.318 41.0703C138.365 40.5703 139.303 39.8984 140.131 39.0547L143.225 42.9688C142.506 44.0312 141.6 44.8984 140.506 45.5703C139.412 46.2266 138.232 46.7109 136.967 47.0234C135.717 47.3359 134.482 47.4844 133.264 47.4688ZM165.396 11H172.544L167.271 41.375L165.607 47H159.138L165.396 11ZM183.818 33.8984L183.771 34.4141C183.583 35.9922 183.232 37.5703 182.716 39.1484C182.216 40.7109 181.521 42.1328 180.63 43.4141C179.739 44.6797 178.622 45.6875 177.278 46.4375C175.95 47.1875 174.372 47.5391 172.544 47.4922C170.95 47.4453 169.638 47.0156 168.607 46.2031C167.575 45.375 166.778 44.3203 166.216 43.0391C165.653 41.7578 165.271 40.3906 165.068 38.9375C164.864 37.4844 164.786 36.1016 164.833 34.7891L164.903 33.9453C165.153 32.5547 165.56 31.1094 166.122 29.6094C166.685 28.0938 167.419 26.6875 168.325 25.3906C169.232 24.0938 170.318 23.0547 171.583 22.2734C172.849 21.4766 174.302 21.1016 175.943 21.1484C177.693 21.1797 179.122 21.5859 180.232 22.3672C181.341 23.1484 182.177 24.1641 182.739 25.4141C183.318 26.6641 183.677 28.0312 183.818 29.5156C183.974 31 183.974 32.4609 183.818 33.8984ZM176.646 34.3906L176.669 33.875C176.747 33.25 176.794 32.5391 176.81 31.7422C176.841 30.9297 176.786 30.1641 176.646 29.4453C176.505 28.7109 176.208 28.1016 175.755 27.6172C175.302 27.1172 174.622 26.8516 173.716 26.8203C172.794 26.7891 171.989 26.9453 171.302 27.2891C170.63 27.6328 170.068 28.1094 169.614 28.7188C169.161 29.3125 168.802 29.9922 168.536 30.7578C168.271 31.5078 168.083 32.2812 167.974 33.0781L167.646 35.5859C167.552 36.5234 167.56 37.4688 167.669 38.4219C167.778 39.3594 168.099 40.1484 168.63 40.7891C169.161 41.4141 170.021 41.75 171.208 41.7969C172.239 41.8281 173.083 41.6172 173.739 41.1641C174.396 40.6953 174.919 40.0938 175.31 39.3594C175.7 38.6094 175.989 37.7969 176.177 36.9219C176.38 36.0469 176.536 35.2031 176.646 34.3906ZM186.993 34.7188L187.04 34.2266C187.243 32.4141 187.688 30.7109 188.376 29.1172C189.063 27.5234 189.977 26.125 191.118 24.9219C192.258 23.7188 193.602 22.7812 195.149 22.1094C196.696 21.4375 198.43 21.125 200.352 21.1719C202.196 21.2031 203.79 21.5703 205.133 22.2734C206.493 22.9609 207.602 23.8984 208.462 25.0859C209.321 26.2734 209.93 27.6328 210.29 29.1641C210.649 30.6953 210.751 32.3203 210.594 34.0391L210.548 34.5547C210.344 36.3516 209.891 38.0391 209.188 39.6172C208.485 41.1953 207.563 42.5781 206.423 43.7656C205.282 44.9531 203.938 45.8828 202.391 46.5547C200.844 47.2109 199.118 47.5156 197.212 47.4688C195.383 47.4375 193.79 47.0781 192.43 46.3906C191.087 45.7031 189.985 44.7734 189.126 43.6016C188.266 42.4297 187.657 41.0859 187.298 39.5703C186.938 38.0547 186.837 36.4375 186.993 34.7188ZM194.188 34.2266L194.141 34.7188C194.094 35.4219 194.071 36.1797 194.071 36.9922C194.087 37.7891 194.196 38.5547 194.399 39.2891C194.618 40.0234 194.977 40.625 195.477 41.0938C195.993 41.5469 196.712 41.7891 197.633 41.8203C198.633 41.8516 199.477 41.6484 200.165 41.2109C200.852 40.7734 201.415 40.1875 201.852 39.4531C202.305 38.7031 202.649 37.8984 202.883 37.0391C203.133 36.1797 203.298 35.3438 203.376 34.5312L203.423 34.0391C203.485 33.3516 203.508 32.6016 203.493 31.7891C203.493 30.9609 203.383 30.1797 203.165 29.4453C202.962 28.6953 202.602 28.0859 202.087 27.6172C201.571 27.1328 200.852 26.875 199.93 26.8438C198.93 26.8125 198.079 27.0234 197.376 27.4766C196.688 27.9297 196.126 28.5312 195.688 29.2812C195.251 30.0312 194.915 30.8438 194.68 31.7188C194.446 32.5781 194.282 33.4141 194.188 34.2266ZM223.098 27.3594L219.699 47H212.527L216.934 21.6406H223.637L223.098 27.3594ZM221.176 33.4297L219.488 33.5C219.645 31.9688 219.973 30.4609 220.473 28.9766C220.988 27.4922 221.684 26.1562 222.559 24.9688C223.449 23.7656 224.543 22.8203 225.84 22.1328C227.152 21.4297 228.676 21.1016 230.41 21.1484C231.707 21.1797 232.777 21.4531 233.621 21.9688C234.481 22.4688 235.152 23.1328 235.637 23.9609C236.137 24.7891 236.465 25.7344 236.621 26.7969C236.777 27.8438 236.801 28.9375 236.692 30.0781L233.856 47H226.707L229.379 30.9453C229.473 30.2109 229.481 29.5391 229.402 28.9297C229.324 28.3203 229.09 27.8203 228.699 27.4297C228.324 27.0391 227.723 26.8359 226.895 26.8203C225.973 26.7891 225.184 26.9766 224.527 27.3828C223.871 27.7734 223.317 28.2969 222.863 28.9531C222.41 29.6094 222.043 30.3281 221.762 31.1094C221.496 31.8906 221.301 32.6641 221.176 33.4297ZM235.613 33.0547L233.41 33.2656C233.567 31.75 233.887 30.2734 234.371 28.8359C234.871 27.3828 235.559 26.0703 236.434 24.8984C237.309 23.7266 238.387 22.8047 239.668 22.1328C240.949 21.4453 242.449 21.1172 244.168 21.1484C245.559 21.1953 246.707 21.4922 247.613 22.0391C248.535 22.5859 249.238 23.3203 249.723 24.2422C250.223 25.1641 250.551 26.2031 250.707 27.3594C250.863 28.5 250.871 29.6875 250.731 30.9219L248.059 47H240.863L243.559 30.8984C243.652 30.1797 243.66 29.5156 243.582 28.9062C243.504 28.2969 243.277 27.8047 242.902 27.4297C242.527 27.0391 241.926 26.8359 241.098 26.8203C240.223 26.7891 239.465 26.9609 238.824 27.3359C238.184 27.6953 237.645 28.1797 237.207 28.7891C236.77 29.3984 236.426 30.0781 236.176 30.8281C235.926 31.5625 235.738 32.3047 235.613 33.0547ZM259.508 11H266.656L261.383 41.375L259.718 47H253.25L259.508 11ZM277.929 33.8984L277.883 34.4141C277.695 35.9922 277.343 37.5703 276.828 39.1484C276.328 40.7109 275.633 42.1328 274.742 43.4141C273.851 44.6797 272.734 45.6875 271.39 46.4375C270.062 47.1875 268.484 47.5391 266.656 47.4922C265.062 47.4453 263.75 47.0156 262.718 46.2031C261.687 45.375 260.89 44.3203 260.328 43.0391C259.765 41.7578 259.383 40.3906 259.179 38.9375C258.976 37.4844 258.898 36.1016 258.945 34.7891L259.015 33.9453C259.265 32.5547 259.672 31.1094 260.234 29.6094C260.797 28.0938 261.531 26.6875 262.437 25.3906C263.343 24.0938 264.429 23.0547 265.695 22.2734C266.961 21.4766 268.414 21.1016 270.054 21.1484C271.804 21.1797 273.234 21.5859 274.343 22.3672C275.453 23.1484 276.289 24.1641 276.851 25.4141C277.429 26.6641 277.789 28.0312 277.929 29.5156C278.086 31 278.086 32.4609 277.929 33.8984ZM270.758 34.3906L270.781 33.875C270.859 33.25 270.906 32.5391 270.922 31.7422C270.953 30.9297 270.898 30.1641 270.758 29.4453C270.617 28.7109 270.32 28.1016 269.867 27.6172C269.414 27.1172 268.734 26.8516 267.828 26.8203C266.906 26.7891 266.101 26.9453 265.414 27.2891C264.742 27.6328 264.179 28.1094 263.726 28.7188C263.273 29.3125 262.914 29.9922 262.648 30.7578C262.383 31.5078 262.195 32.2812 262.086 33.0781L261.758 35.5859C261.664 36.5234 261.672 37.4688 261.781 38.4219C261.89 39.3594 262.211 40.1484 262.742 40.7891C263.273 41.4141 264.133 41.75 265.32 41.7969C266.351 41.8281 267.195 41.6172 267.851 41.1641C268.508 40.6953 269.031 40.0938 269.422 39.3594C269.812 38.6094 270.101 37.7969 270.289 36.9219C270.492 36.0469 270.648 35.2031 270.758 34.3906ZM294.394 39.8047C294.534 39.1016 294.347 38.5547 293.831 38.1641C293.331 37.7734 292.722 37.4844 292.003 37.2969C291.3 37.0938 290.714 36.9297 290.245 36.8047C289.292 36.5703 288.339 36.2578 287.386 35.8672C286.448 35.4766 285.597 34.9844 284.831 34.3906C284.081 33.7969 283.48 33.0781 283.027 32.2344C282.573 31.3906 282.37 30.3984 282.417 29.2578C282.48 27.8672 282.831 26.6641 283.472 25.6484C284.128 24.6328 284.98 23.7891 286.027 23.1172C287.073 22.4453 288.214 21.9453 289.448 21.6172C290.698 21.2891 291.941 21.1406 293.175 21.1719C294.862 21.1875 296.448 21.5 297.933 22.1094C299.433 22.7031 300.644 23.6094 301.566 24.8281C302.503 26.0312 302.972 27.5547 302.972 29.3984L295.87 29.375C295.886 28.7188 295.792 28.1484 295.589 27.6641C295.386 27.1797 295.066 26.8125 294.628 26.5625C294.191 26.2969 293.62 26.1641 292.917 26.1641C292.37 26.1484 291.823 26.25 291.277 26.4688C290.745 26.6875 290.284 27 289.894 27.4062C289.519 27.8125 289.284 28.3125 289.191 28.9062C289.097 29.3906 289.159 29.7969 289.378 30.125C289.612 30.4531 289.925 30.7188 290.316 30.9219C290.722 31.1094 291.144 31.2656 291.581 31.3906C292.034 31.5156 292.441 31.6172 292.8 31.6953C294.191 32.0391 295.542 32.4922 296.855 33.0547C298.183 33.6172 299.269 34.4141 300.112 35.4453C300.956 36.4766 301.355 37.8359 301.308 39.5234C301.245 40.9609 300.855 42.1875 300.136 43.2031C299.417 44.2188 298.495 45.0469 297.37 45.6875C296.261 46.3125 295.05 46.7656 293.737 47.0469C292.441 47.3438 291.183 47.4844 289.964 47.4688C288.261 47.4375 286.652 47.0938 285.136 46.4375C283.62 45.7656 282.394 44.7969 281.456 43.5312C280.519 42.2656 280.034 40.7109 280.003 38.8672L286.659 38.8906C286.675 39.6719 286.823 40.3281 287.105 40.8594C287.386 41.375 287.8 41.7734 288.347 42.0547C288.894 42.3203 289.55 42.4609 290.316 42.4766C290.909 42.4766 291.495 42.3906 292.073 42.2188C292.652 42.0312 293.152 41.7422 293.573 41.3516C293.995 40.9453 294.269 40.4297 294.394 39.8047Z" fill="#FCFCFC"/>
</g>
<defs>
<filter id="filter0_d_1202_339" x="0.773438" y="0" width="317.198" height="75.75" filterUnits="userSpaceOnUse" color-interpolation-filters="sRGB">
<feFlood flood-opacity="0" result="BackgroundImageFix"/>
<feColorMatrix in="SourceAlpha" type="matrix" values="0 0 0 0 0 0 0 0 0 0 0 0 0 0 0 0 0 0 127 0" result="hardAlpha"/>
<feOffset dy="4"/>
<feGaussianBlur stdDeviation="7.5"/>
<feComposite in2="hardAlpha" operator="out"/>
<feColorMatrix type="matrix" values="0 0 0 0 0.0196078 0 0 0 0 0 0 0 0 0 1 0 0 0 1 0"/>
<feBlend mode="normal" in2="BackgroundImageFix" result="effect1_dropShadow_1202_339"/>
<feBlend mode="normal" in="SourceGraphic" in2="effect1_dropShadow_1202_339" result="shape"/>
</filter>
</defs>
</svg>
